<svg width="18" height="18" viewBox="0 0 18 18" fill="none" xmlns="http://www.w3.org/2000/svg">
<path d="M10.88 8.99999L16.6134 3.27999C16.8644 3.02892 17.0055 2.6884 17.0055 2.33333C17.0055 1.97826 16.8644 1.63773 16.6134 1.38666C16.3623 1.13559 16.0218 0.994537 15.6667 0.994537C15.3116 0.994537 14.9711 1.13559 14.72 1.38666L9.00004 7.11999L3.28004 1.38666C3.02897 1.13559 2.68844 0.994537 2.33337 0.994537C1.97831 0.994537 1.63778 1.13559 1.38671 1.38666C1.13564 1.63773 0.994585 1.97826 0.994585 2.33333C0.994585 2.6884 1.13564 3.02892 1.38671 3.27999L7.12004 8.99999L1.38671 14.72C1.26174 14.8439 1.16254 14.9914 1.09485 15.1539C1.02716 15.3164 0.99231 15.4906 0.99231 15.6667C0.99231 15.8427 1.02716 16.0169 1.09485 16.1794C1.16254 16.3419 1.26174 16.4894 1.38671 16.6133C1.51066 16.7383 1.65813 16.8375 1.8206 16.9052C1.98308 16.9729 2.15736 17.0077 2.33337 17.0077C2.50939 17.0077 2.68366 16.9729 2.84614 16.9052C3.00862 16.8375 3.15609 16.7383 3.28004 16.6133L9.00004 10.88L14.72 16.6133C14.844 16.7383 14.9915 16.8375 15.1539 16.9052C15.3164 16.9729 15.4907 17.0077 15.6667 17.0077C15.8427 17.0077 16.017 16.9729 16.1795 16.9052C16.342 16.8375 16.4894 16.7383 16.6134 16.6133C16.7383 16.4894 16.8375 16.3419 16.9052 16.1794C16.9729 16.0169 17.0078 15.8427 17.0078 15.6667C17.0078 15.4906 16.9729 15.3164 16.9052 15.1539C16.8375 14.9914 16.7383 14.8439 16.6134 14.72L10.88 8.99999Z" fill="#F1FAEE"/>
</svg>
