<svg width="33" height="45" viewBox="0 0 33 45" fill="none" xmlns="http://www.w3.org/2000/svg">
<path d="M26.892 3.7575C25.0143 2.21315 22.8155 1.10747 20.456 0.521137C18.0965 -0.0651993 15.6359 -0.117405 13.2537 0.36833C10.0817 1.00905 7.17156 2.57756 4.89244 4.87486C2.61332 7.17216 1.06797 10.0947 0.452462 13.2717C0.0029828 15.6537 0.0846603 18.1056 0.691668 20.4525C1.29868 22.7993 2.41606 24.9834 3.96413 26.8487C5.40082 28.47 6.22432 30.5432 6.29163 32.7083V38.8333C6.29163 40.4578 6.93694 42.0157 8.0856 43.1644C9.23426 44.313 10.7922 44.9583 12.4166 44.9583H20.5833C22.2077 44.9583 23.7657 44.313 24.9143 43.1644C26.063 42.0157 26.7083 40.4578 26.7083 38.8333V33.0962C26.7768 30.7058 27.655 28.4095 29.1991 26.5833C31.9046 23.2366 33.1799 18.9573 32.7479 14.6756C32.3159 10.3938 30.2115 6.45553 26.892 3.71666V3.7575ZM22.625 38.8333C22.625 39.3748 22.4099 39.8941 22.027 40.277C21.6441 40.6599 21.1248 40.875 20.5833 40.875H12.4166C11.8751 40.875 11.3558 40.6599 10.973 40.277C10.5901 39.8941 10.375 39.3748 10.375 38.8333V36.7917H22.625V38.8333ZM26.0345 24.0517C23.9817 26.4866 22.7839 29.5275 22.625 32.7083H18.5416V26.5833C18.5416 26.0418 18.3265 25.5225 17.9436 25.1397C17.5608 24.7568 17.0414 24.5417 16.5 24.5417C15.9585 24.5417 15.4392 24.7568 15.0563 25.1397C14.6734 25.5225 14.4583 26.0418 14.4583 26.5833V32.7083H10.375C10.3211 29.5807 9.16414 26.5726 7.1083 24.215C5.7519 22.5898 4.83978 20.6409 4.46089 18.5582C4.08199 16.4756 4.24925 14.3303 4.94635 12.3315C5.64345 10.3328 6.8466 8.54876 8.43849 7.15345C10.0304 5.75814 11.9567 4.79916 14.0295 4.37C15.811 4.0032 17.6518 4.0377 19.4183 4.471C21.1847 4.90429 22.8325 5.72551 24.2421 6.87503C25.6516 8.02454 26.7874 9.47351 27.5672 11.1167C28.3469 12.7599 28.751 14.5562 28.75 16.375C28.7651 19.1718 27.8049 21.8864 26.0345 24.0517Z" fill="#F1FAEE"/>
</svg>
